<svg width="105" height="36" viewBox="0 0 105 36" fill="none" xmlns="http://www.w3.org/2000/svg">
<path d="M29.3909 16.28L22.6709 28.28H15.9509L9.23094 16.28V35H0.590938V1.4H9.71094L19.3109 19.16L28.9109 1.4H38.0309V35H29.3909V16.28ZM65.4097 10.52C65.4097 8.6 64.4497 7.64 62.5297 7.64H54.3697C52.4497 7.64 51.4897 8.6 51.4897 10.52V25.88C51.4897 27.8 52.4497 28.76 54.3697 28.76H62.5297C64.4497 28.76 65.4097 27.8 65.4097 25.88V10.52ZM74.0497 25.88C74.0497 29.24 73.2817 31.688 71.7457 33.224C70.2417 34.728 67.8097 35.48 64.4497 35.48H52.4497C49.0897 35.48 46.6417 34.728 45.1057 33.224C43.6017 31.688 42.8497 29.24 42.8497 25.88V10.52C42.8497 7.16 43.6017 4.728 45.1057 3.224C46.6417 1.688 49.0897 0.919998 52.4497 0.919998H64.4497C67.8097 0.919998 70.2417 1.688 71.7457 3.224C73.2817 4.728 74.0497 7.16 74.0497 10.52V25.88ZM104.312 8.12L87.5122 28.28H104.312V35H76.9522V28.28L93.7522 8.12H76.9522V1.4H104.312V8.12Z" fill="#008FD5"/>
</svg>
